<svg width="34" height="22" viewBox="0 0 34 22" fill="none" xmlns="http://www.w3.org/2000/svg">
<rect width="34" height="22" rx="11" fill="#E01111"/>
<path d="M11.34 14.99V14.08H8L9.5 12.78C10.78 11.67 11.29 10.94 11.29 9.91C11.29 8.52 10.36 7.64 8.91 7.64C7.44 7.64 6.46 8.65 6.43 10.2H7.41C7.43 9.17 8.01 8.52 8.9 8.52C9.77 8.52 10.29 9.06 10.29 9.97C10.29 10.74 9.96 11.23 8.79 12.24L6.46 14.25V15L11.34 14.99ZM12.042 11.39C12.042 13.64 13.152 15.13 15.022 15.13C16.882 15.13 17.992 13.64 17.992 11.39C17.992 9.15 16.832 7.63 15.022 7.63C13.202 7.63 12.042 9.15 12.042 11.39ZM13.012 11.39C13.012 9.59 13.752 8.51 15.022 8.51C16.292 8.51 17.022 9.59 17.022 11.39C17.022 13.17 16.292 14.25 15.022 14.25C13.752 14.25 13.012 13.17 13.012 11.39ZM22.3555 9.48C22.3555 8.4 21.5955 7.63 20.5255 7.63C19.4655 7.63 18.7055 8.4 18.7055 9.48C18.7055 10.55 19.4655 11.32 20.5255 11.32C21.5955 11.32 22.3555 10.55 22.3555 9.48ZM26.1655 7.78H25.2055L19.7155 15H20.6755L26.1655 7.78ZM21.5855 9.48C21.5855 10.12 21.1455 10.57 20.5255 10.57C19.9055 10.57 19.4755 10.12 19.4755 9.48C19.4755 8.83 19.9055 8.38 20.5255 8.38C21.1555 8.38 21.5855 8.83 21.5855 9.48ZM27.1955 13.29C27.1955 12.21 26.4255 11.45 25.3655 11.45C24.3055 11.45 23.5355 12.21 23.5355 13.29C23.5355 14.36 24.3055 15.13 25.3655 15.13C26.4255 15.13 27.1955 14.36 27.1955 13.29ZM26.4155 13.29C26.4155 13.93 25.9855 14.38 25.3655 14.38C24.7455 14.38 24.3155 13.93 24.3155 13.29C24.3155 12.64 24.7455 12.19 25.3655 12.19C25.9955 12.19 26.4155 12.64 26.4155 13.29Z" fill="white"/>
</svg>
